<?xml version="1.0" encoding="UTF-8" standalone="no"?>
<!DOCTYPE svg PUBLIC "-//W3C//DTD SVG 1.1//EN"
 "http://www.w3.org/Graphics/SVG/1.1/DTD/svg11.dtd">
<!-- Generated by graphviz version 2.43.0 (0)
 -->
<!-- Title: G Pages: 1 -->
<svg width="100%" height="100%"
 viewBox="0.00 0.00 2061.50 726.00" xmlns="http://www.w3.org/2000/svg" xmlns:xlink="http://www.w3.org/1999/xlink">
<g id="graph0" class="graph" transform="scale(1 1) rotate(0) translate(4 722)">
<title>G</title>
<polygon fill="white" stroke="transparent" points="-4,4 -4,-722 2057.5,-722 2057.5,4 -4,4"/>
<text text-anchor="start" x="900.75" y="-703.8" font-family="Times-Roman" font-weight="bold" font-size="14.00">Alonzo Data Ecosystem, v1.30.1</text>
<!-- BuiltinData -->
<g id="node1" class="node">
<title>BuiltinData</title>
<polygon fill="none" stroke="black" points="868.5,-648.5 868.5,-694.5 1122.5,-694.5 1122.5,-648.5 868.5,-648.5"/>
<text text-anchor="middle" x="949" y="-679.3" font-family="Times-Roman" font-size="14.00">plutus&#45;ledger&#45;api</text>
<polyline fill="none" stroke="black" points="868.5,-671.5 1029.5,-671.5 "/>
<text text-anchor="middle" x="949" y="-656.3" font-family="Times-Roman" font-size="14.00">Plutus.V1.Ledger.Api</text>
<polyline fill="none" stroke="black" points="1029.5,-648.5 1029.5,-694.5 "/>
<text text-anchor="middle" x="1076" y="-667.8" font-family="Times-Roman" font-size="14.00">BuiltinData</text>
</g>
<!-- a -->
<g id="node2" class="node">
<title>a</title>
<polygon fill="none" stroke="black" points="968.5,-545.5 968.5,-581.5 1022.5,-581.5 1022.5,-545.5 968.5,-545.5"/>
<text text-anchor="middle" x="995.5" y="-559.8" font-family="Times-Roman" font-size="14.00">a</text>
</g>
<!-- BuiltinData&#45;&gt;a -->
<g id="edge2" class="edge">
<title>BuiltinData&#45;&gt;a</title>
<path fill="none" stroke="black" d="M995.5,-648.28C995.5,-631.89 995.5,-609.49 995.5,-591.98"/>
<polygon fill="black" stroke="black" points="999,-591.8 995.5,-581.8 992,-591.8 999,-591.8"/>
<text text-anchor="middle" x="1050" y="-618.8" font-family="Times-Roman" font-size="14.00">FromData a ⇒</text>
<text text-anchor="middle" x="1050" y="-603.8" font-family="Times-Roman" font-size="14.00">fromBuiltinData</text>
</g>
<!-- BuiltinData&#45;&gt;a -->
<g id="edge3" class="edge">
<title>BuiltinData&#45;&gt;a</title>
<path fill="none" stroke="black" d="M1086.08,-648.46C1093.62,-643.5 1100.32,-637.43 1105.5,-630 1113.13,-619.06 1113.35,-610.78 1105.5,-600 1089.07,-577.43 1058.01,-568.91 1033.07,-565.83"/>
<polygon fill="black" stroke="black" points="1033.12,-562.32 1022.82,-564.82 1032.43,-569.28 1033.12,-562.32"/>
<text text-anchor="middle" x="1190.5" y="-618.8" font-family="Times-Roman" font-size="14.00">UnsafeFromData a ⇒</text>
<text text-anchor="middle" x="1190.5" y="-603.8" font-family="Times-Roman" font-size="14.00">unsafeFromBuiltinData</text>
</g>
<!-- Datum -->
<g id="node3" class="node">
<title>Datum</title>
<polygon fill="none" stroke="black" points="823.5,-265.5 823.5,-311.5 1047.5,-311.5 1047.5,-265.5 823.5,-265.5"/>
<text text-anchor="middle" x="904" y="-296.3" font-family="Times-Roman" font-size="14.00">plutus&#45;ledger&#45;api</text>
<polyline fill="none" stroke="black" points="823.5,-288.5 984.5,-288.5 "/>
<text text-anchor="middle" x="904" y="-273.3" font-family="Times-Roman" font-size="14.00">Plutus.V1.Ledger.Api</text>
<polyline fill="none" stroke="black" points="984.5,-265.5 984.5,-311.5 "/>
<text text-anchor="middle" x="1016" y="-284.8" font-family="Times-Roman" font-size="14.00">Datum</text>
</g>
<!-- BuiltinData&#45;&gt;Datum -->
<g id="edge5" class="edge">
<title>BuiltinData&#45;&gt;Datum</title>
<path fill="none" stroke="black" d="M892.21,-648.38C881.83,-643.44 872,-637.4 863.5,-630 825.4,-596.84 826.43,-576.31 815.5,-527 797.59,-446.16 863.58,-362.09 904.77,-318.95"/>
<polygon fill="black" stroke="black" points="907.43,-321.24 911.9,-311.63 902.41,-316.35 907.43,-321.24"/>
<text text-anchor="middle" x="839" y="-508.3" font-family="Times-Roman" font-size="14.00">Datum</text>
</g>
<!-- Redeemer -->
<g id="node4" class="node">
<title>Redeemer</title>
<polygon fill="none" stroke="black" points="1097.5,-265.5 1097.5,-311.5 1345.5,-311.5 1345.5,-265.5 1097.5,-265.5"/>
<text text-anchor="middle" x="1178" y="-296.3" font-family="Times-Roman" font-size="14.00">plutus&#45;ledger&#45;api</text>
<polyline fill="none" stroke="black" points="1097.5,-288.5 1258.5,-288.5 "/>
<text text-anchor="middle" x="1178" y="-273.3" font-family="Times-Roman" font-size="14.00">Plutus.V1.Ledger.Api</text>
<polyline fill="none" stroke="black" points="1258.5,-265.5 1258.5,-311.5 "/>
<text text-anchor="middle" x="1302" y="-284.8" font-family="Times-Roman" font-size="14.00">Redeemer</text>
</g>
<!-- BuiltinData&#45;&gt;Redeemer -->
<g id="edge7" class="edge">
<title>BuiltinData&#45;&gt;Redeemer</title>
<path fill="none" stroke="black" d="M1122.59,-667.73C1186.01,-663.37 1253.44,-653.19 1273.5,-630 1294.65,-605.55 1247.49,-554.11 1240.5,-527 1235.51,-507.63 1227.22,-381.99 1223.46,-321.7"/>
<polygon fill="black" stroke="black" points="1226.94,-321.34 1222.83,-311.58 1219.96,-321.78 1226.94,-321.34"/>
<text text-anchor="middle" x="1276" y="-508.3" font-family="Times-Roman" font-size="14.00">Redeemer</text>
</g>
<!-- Data -->
<g id="node5" class="node">
<title>Data</title>
<polygon fill="none" stroke="black" points="265,-363.5 265,-478.5 672,-478.5 672,-363.5 265,-363.5"/>
<text text-anchor="middle" x="345.5" y="-446.3" font-family="Times-Roman" font-size="14.00">plutus&#45;ledger&#45;api</text>
<polyline fill="none" stroke="black" points="265,-421.5 426,-421.5 "/>
<text text-anchor="middle" x="345.5" y="-388.8" font-family="Times-Roman" font-size="14.00">Plutus.V1.Ledger.Api</text>
<polyline fill="none" stroke="black" points="426,-363.5 426,-478.5 "/>
<text text-anchor="middle" x="450.5" y="-417.3" font-family="Times-Roman" font-size="14.00">Data</text>
<polyline fill="none" stroke="black" points="475,-363.5 475,-478.5 "/>
<text text-anchor="middle" x="573.5" y="-463.3" font-family="Times-Roman" font-size="14.00">DataConstr Integer [Data]</text>
<polyline fill="none" stroke="black" points="475,-455.5 672,-455.5 "/>
<text text-anchor="middle" x="573.5" y="-440.3" font-family="Times-Roman" font-size="14.00">Map [(Data, Data)]</text>
<polyline fill="none" stroke="black" points="475,-432.5 672,-432.5 "/>
<text text-anchor="middle" x="573.5" y="-417.3" font-family="Times-Roman" font-size="14.00">List [Data]</text>
<polyline fill="none" stroke="black" points="475,-409.5 672,-409.5 "/>
<text text-anchor="middle" x="573.5" y="-394.3" font-family="Times-Roman" font-size="14.00">I Integer</text>
<polyline fill="none" stroke="black" points="475,-386.5 672,-386.5 "/>
<text text-anchor="middle" x="573.5" y="-371.3" font-family="Times-Roman" font-size="14.00">B ByteString</text>
</g>
<!-- BuiltinData&#45;&gt;Data -->
<g id="edge10" class="edge">
<title>BuiltinData&#45;&gt;Data</title>
<path fill="none" stroke="black" d="M868.33,-668.07C766.21,-664.25 619.56,-654.54 493.5,-630 423.55,-616.38 382.68,-639.44 340.5,-582 316.72,-549.62 338.84,-514.66 370.98,-485.71"/>
<polygon fill="black" stroke="black" points="373.62,-488.06 378.89,-478.87 369.04,-482.77 373.62,-488.06"/>
<text text-anchor="middle" x="402" y="-559.8" font-family="Times-Roman" font-size="14.00">builtinDataToData</text>
</g>
<!-- IsData -->
<g id="node11" class="node">
<title>IsData</title>
<polygon fill="none" stroke="black" points="1679,-387 1679,-455 1852,-455 1852,-387 1679,-387"/>
<text text-anchor="middle" x="1765.5" y="-439.8" font-family="Times-Roman" font-size="14.00">ToData a ⇒</text>
<text text-anchor="middle" x="1765.5" y="-424.8" font-family="Times-Roman" font-size="14.00">FromData a ⇒</text>
<text text-anchor="middle" x="1765.5" y="-409.8" font-family="Times-Roman" font-size="14.00">UnstableFromData a ⇒</text>
<text text-anchor="middle" x="1765.5" y="-394.8" font-family="Times-Roman" font-size="14.00">a</text>
</g>
<!-- BuiltinData&#45;&gt;IsData -->
<g id="edge29" class="edge">
<title>BuiltinData&#45;&gt;IsData</title>
<path fill="none" stroke="black" d="M1122.56,-660.4C1189.29,-653.94 1272.21,-644.08 1345.5,-630 1487.48,-602.73 1518.69,-577.79 1659.5,-545 1700.08,-535.55 1722.95,-557.34 1751.5,-527 1766.77,-510.77 1770.72,-486.38 1770.65,-465.19"/>
<polygon fill="black" stroke="black" points="1774.14,-464.98 1770.32,-455.1 1767.15,-465.21 1774.14,-464.98"/>
<text text-anchor="middle" x="1714" y="-559.8" font-family="Times-Roman" font-size="14.00">fromBuiltinData</text>
</g>
<!-- BuiltinData&#45;&gt;IsData -->
<g id="edge30" class="edge">
<title>BuiltinData&#45;&gt;IsData</title>
<path fill="none" stroke="black" d="M1122.62,-664.8C1330.65,-654.2 1725.19,-628.19 1768.5,-582 1797.25,-551.34 1790.97,-501.04 1781.03,-465.03"/>
<polygon fill="black" stroke="black" points="1784.34,-463.87 1778.15,-455.27 1777.62,-465.85 1784.34,-463.87"/>
<text text-anchor="middle" x="1865.5" y="-559.8" font-family="Times-Roman" font-size="14.00">unsafeFromBuiltinData</text>
</g>
<!-- a&#45;&gt;BuiltinData -->
<g id="edge1" class="edge">
<title>a&#45;&gt;BuiltinData</title>
<path fill="none" stroke="black" d="M968.46,-564.51C941.73,-566.15 902.09,-573.31 882.5,-600 874.61,-610.75 874.83,-619.1 882.5,-630 885.76,-634.63 889.6,-638.74 893.87,-642.38"/>
<polygon fill="black" stroke="black" points="891.86,-645.25 901.97,-648.43 896.05,-639.64 891.86,-645.25"/>
<text text-anchor="middle" x="928" y="-618.8" font-family="Times-Roman" font-size="14.00">ToData a ⇒</text>
<text text-anchor="middle" x="928" y="-603.8" font-family="Times-Roman" font-size="14.00">toBuiltinData</text>
</g>
<!-- a&#45;&gt;Data -->
<g id="edge24" class="edge">
<title>a&#45;&gt;Data</title>
<path fill="none" stroke="black" d="M968.49,-561.65C907.41,-559.33 760.73,-551.3 718.5,-527 703.94,-518.62 709.19,-506.73 695.5,-497 688.9,-492.31 681.99,-487.9 674.85,-483.75"/>
<polygon fill="black" stroke="black" points="676.12,-480.45 665.69,-478.63 672.71,-486.57 676.12,-480.45"/>
<text text-anchor="middle" x="756.5" y="-515.8" font-family="Times-Roman" font-size="14.00">ToData a ⇒</text>
<text text-anchor="middle" x="756.5" y="-500.8" font-family="Times-Roman" font-size="14.00">toData</text>
</g>
<!-- Value -->
<g id="node10" class="node">
<title>Value</title>
<polygon fill="none" stroke="black" points="965,-398 965,-444 1120,-444 1120,-398 965,-398"/>
<text text-anchor="middle" x="1015.5" y="-428.8" font-family="Times-Roman" font-size="14.00">cardani&#45;api</text>
<polyline fill="none" stroke="black" points="965,-421 1066,-421 "/>
<text text-anchor="middle" x="1015.5" y="-405.8" font-family="Times-Roman" font-size="14.00">Cardano.Api</text>
<polyline fill="none" stroke="black" points="1066,-398 1066,-444 "/>
<text text-anchor="middle" x="1093" y="-417.3" font-family="Times-Roman" font-size="14.00">Value</text>
</g>
<!-- a&#45;&gt;Value -->
<g id="edge23" class="edge">
<title>a&#45;&gt;Value</title>
<path fill="none" stroke="black" d="M988.14,-545.44C983.4,-532 979.06,-512.93 984.5,-497 990.18,-480.36 1001.22,-464.55 1012.16,-451.77"/>
<polygon fill="black" stroke="black" points="1014.85,-454.01 1018.91,-444.22 1009.63,-449.35 1014.85,-454.01"/>
<text text-anchor="middle" x="1024" y="-515.8" font-family="Times-Roman" font-size="14.00">ToJSON a ⇒</text>
<text text-anchor="middle" x="1024" y="-500.8" font-family="Times-Roman" font-size="14.00">toJSON</text>
</g>
<!-- a&#45;&gt;IsData -->
<g id="edge26" class="edge">
<title>a&#45;&gt;IsData</title>
<path fill="none" stroke="black" d="M1022.71,-561.54C1111.8,-558.2 1391.12,-546.31 1426.5,-527 1441.25,-518.95 1435.4,-506.14 1449.5,-497 1515.22,-454.42 1602.62,-435.97 1668.85,-428"/>
<polygon fill="black" stroke="black" points="1669.34,-431.46 1678.88,-426.85 1668.54,-424.51 1669.34,-431.46"/>
<text text-anchor="middle" x="1520" y="-508.3" font-family="Times-Roman" font-size="14.00">unstableMakeIsData</text>
</g>
<!-- a&#45;&gt;IsData -->
<g id="edge27" class="edge">
<title>a&#45;&gt;IsData</title>
<path fill="none" stroke="black" d="M1022.62,-562.2C1132.35,-560.8 1539.95,-553.84 1590.5,-527 1605.34,-519.12 1600.52,-507.66 1613.5,-497 1631.03,-482.6 1651.79,-470.08 1672.24,-459.6"/>
<polygon fill="black" stroke="black" points="1673.9,-462.68 1681.28,-455.08 1670.77,-456.42 1673.9,-462.68"/>
<text text-anchor="middle" x="1682.5" y="-508.3" font-family="Times-Roman" font-size="14.00">makeIsDataIndexed</text>
</g>
<!-- Datum&#45;&gt;BuiltinData -->
<g id="edge4" class="edge">
<title>Datum&#45;&gt;BuiltinData</title>
<path fill="none" stroke="black" d="M918.79,-311.71C915.2,-317.42 911.8,-323.72 909.5,-330 847.46,-499.09 865.3,-618.63 873.5,-630 876.85,-634.64 880.75,-638.75 885.05,-642.4"/>
<polygon fill="black" stroke="black" points="883.11,-645.32 893.22,-648.48 887.29,-639.7 883.11,-645.32"/>
<text text-anchor="middle" x="903.5" y="-508.3" font-family="Times-Roman" font-size="14.00">getDatum</text>
</g>
<!-- Datum&#45;&gt;Value -->
<g id="edge19" class="edge">
<title>Datum&#45;&gt;Value</title>
<path fill="none" stroke="black" d="M919.57,-311.66C914.07,-322.16 910.61,-334.64 916.5,-345 928.44,-366.01 948.86,-381.75 969.82,-393.24"/>
<polygon fill="black" stroke="black" points="968.32,-396.41 978.81,-397.91 971.55,-390.2 968.32,-396.41"/>
<text text-anchor="middle" x="941" y="-333.8" font-family="Times-Roman" font-size="14.00">toJSON</text>
</g>
<!-- Redeemer&#45;&gt;BuiltinData -->
<g id="edge6" class="edge">
<title>Redeemer&#45;&gt;BuiltinData</title>
<path fill="none" stroke="black" d="M1239.91,-311.83C1244.08,-317.53 1248.23,-323.81 1251.5,-330 1283.31,-390.24 1359.53,-578.89 1314.5,-630 1302.02,-644.16 1213.73,-654.66 1133.19,-661.42"/>
<polygon fill="black" stroke="black" points="1132.59,-657.95 1122.91,-662.26 1133.16,-664.93 1132.59,-657.95"/>
<text text-anchor="middle" x="1368.5" y="-508.3" font-family="Times-Roman" font-size="14.00">getRedeemer</text>
</g>
<!-- Redeemer&#45;&gt;Value -->
<g id="edge21" class="edge">
<title>Redeemer&#45;&gt;Value</title>
<path fill="none" stroke="black" d="M1111.24,-311.52C1100.84,-316.48 1091.02,-322.56 1082.5,-330 1065.28,-345.04 1055.14,-368.92 1049.38,-388.3"/>
<polygon fill="black" stroke="black" points="1046,-387.39 1046.75,-397.96 1052.75,-389.23 1046,-387.39"/>
<text text-anchor="middle" x="1107" y="-333.8" font-family="Times-Roman" font-size="14.00">toJSON</text>
</g>
<!-- Data&#45;&gt;BuiltinData -->
<g id="edge8" class="edge">
<title>Data&#45;&gt;BuiltinData</title>
<path fill="none" stroke="black" d="M461.04,-478.73C459.63,-511.36 463.03,-551.76 482.5,-582 505.99,-618.48 526.11,-617 567.5,-630 620.01,-646.49 754.09,-657.42 858.31,-663.73"/>
<polygon fill="black" stroke="black" points="858.11,-667.22 868.3,-664.32 858.52,-660.23 858.11,-667.22"/>
<text text-anchor="middle" x="521" y="-559.8" font-family="Times-Roman" font-size="14.00">BuiltinData</text>
</g>
<!-- Data&#45;&gt;BuiltinData -->
<g id="edge9" class="edge">
<title>Data&#45;&gt;BuiltinData</title>
<path fill="none" stroke="black" d="M522.77,-478.68C540.08,-495.26 559.86,-512.74 579.5,-527 667.83,-591.15 697.91,-598.69 802.5,-630 822.53,-636 843.99,-641.44 865.06,-646.25"/>
<polygon fill="black" stroke="black" points="864.51,-649.71 875.03,-648.48 866.04,-642.88 864.51,-649.71"/>
<text text-anchor="middle" x="727.5" y="-559.8" font-family="Times-Roman" font-size="14.00">dataToBuiltinData</text>
</g>
<!-- Data&#45;&gt;a -->
<g id="edge25" class="edge">
<title>Data&#45;&gt;a</title>
<path fill="none" stroke="black" d="M556.74,-478.68C563.72,-484.52 570.42,-490.66 576.5,-497 587.42,-508.39 582.02,-518.79 595.5,-527 610.87,-536.37 861.73,-553.72 958.15,-560.08"/>
<polygon fill="black" stroke="black" points="958.12,-563.59 968.33,-560.75 958.58,-556.6 958.12,-563.59"/>
<text text-anchor="middle" x="643.5" y="-515.8" font-family="Times-Roman" font-size="14.00">FromData a ⇒</text>
<text text-anchor="middle" x="643.5" y="-500.8" font-family="Times-Roman" font-size="14.00">fromData</text>
</g>
<!-- ScriptData -->
<g id="node6" class="node">
<title>ScriptData</title>
<polygon fill="none" stroke="black" points="45,-98.5 45,-213.5 604,-213.5 604,-98.5 45,-98.5"/>
<text text-anchor="middle" x="123" y="-181.3" font-family="Times-Roman" font-size="14.00">cardano&#45;api</text>
<polyline fill="none" stroke="black" points="45,-156.5 201,-156.5 "/>
<text text-anchor="middle" x="123" y="-123.8" font-family="Times-Roman" font-size="14.00">Cardano.Api.Shelley</text>
<polyline fill="none" stroke="black" points="201,-98.5 201,-213.5 "/>
<text text-anchor="middle" x="245.5" y="-152.3" font-family="Times-Roman" font-size="14.00">ScriptData</text>
<polyline fill="none" stroke="black" points="290,-98.5 290,-213.5 "/>
<text text-anchor="middle" x="447" y="-198.3" font-family="Times-Roman" font-size="14.00">ScriptDataConstructor Integer [ScriptData]</text>
<polyline fill="none" stroke="black" points="290,-190.5 604,-190.5 "/>
<text text-anchor="middle" x="447" y="-175.3" font-family="Times-Roman" font-size="14.00">ScriptDataMap [(ScriptData, ScriptData)]</text>
<polyline fill="none" stroke="black" points="290,-167.5 604,-167.5 "/>
<text text-anchor="middle" x="447" y="-152.3" font-family="Times-Roman" font-size="14.00">ScriptDataList [ScriptData]</text>
<polyline fill="none" stroke="black" points="290,-144.5 604,-144.5 "/>
<text text-anchor="middle" x="447" y="-129.3" font-family="Times-Roman" font-size="14.00">ScriptDataNumber Integer</text>
<polyline fill="none" stroke="black" points="290,-121.5 604,-121.5 "/>
<text text-anchor="middle" x="447" y="-106.3" font-family="Times-Roman" font-size="14.00">ScriptDataBytes ByteString</text>
</g>
<!-- Data&#45;&gt;ScriptData -->
<g id="edge12" class="edge">
<title>Data&#45;&gt;ScriptData</title>
<path fill="none" stroke="black" d="M367.13,-363.41C349.92,-348.99 334.42,-331.85 324.5,-312 311.1,-285.2 309.36,-252.4 311.66,-223.88"/>
<polygon fill="black" stroke="black" points="315.18,-223.89 312.68,-213.59 308.21,-223.2 315.18,-223.89"/>
<text text-anchor="middle" x="378.5" y="-284.8" font-family="Times-Roman" font-size="14.00">fromPlutusData</text>
</g>
<!-- AlonzoData -->
<g id="node7" class="node">
<title>AlonzoData</title>
<polygon fill="none" stroke="black" points="0,-265.5 0,-311.5 289,-311.5 289,-265.5 0,-265.5"/>
<text text-anchor="middle" x="106.5" y="-296.3" font-family="Times-Roman" font-size="14.00">cardano&#45;ledger&#45;alonzo</text>
<polyline fill="none" stroke="black" points="0,-288.5 213,-288.5 "/>
<text text-anchor="middle" x="106.5" y="-273.3" font-family="Times-Roman" font-size="14.00">Cardano.Ledger.Alonzo.Data</text>
<polyline fill="none" stroke="black" points="213,-265.5 213,-311.5 "/>
<text text-anchor="middle" x="251" y="-284.8" font-family="Times-Roman" font-size="14.00">Data era</text>
</g>
<!-- Data&#45;&gt;AlonzoData -->
<g id="edge15" class="edge">
<title>Data&#45;&gt;AlonzoData</title>
<path fill="none" stroke="black" d="M255.29,-359.77C244.06,-355.12 233.06,-350.2 222.5,-345 207.45,-337.6 192.15,-327.41 179.13,-317.78"/>
<polygon fill="black" stroke="black" points="254.19,-363.1 264.77,-363.61 256.82,-356.61 254.19,-363.1"/>
<polygon fill="black" stroke="black" points="181.02,-314.82 170.93,-311.57 176.79,-320.4 181.02,-314.82"/>
<text text-anchor="middle" x="266.5" y="-333.8" font-family="Times-Roman" font-size="14.00">pattern Data</text>
</g>
<!-- ScriptData&#45;&gt;Data -->
<g id="edge11" class="edge">
<title>ScriptData&#45;&gt;Data</title>
<path fill="none" stroke="black" d="M396.32,-213.69C411.59,-228.87 426.2,-246.31 436.5,-265 451.33,-291.91 459.31,-324.88 463.59,-353.49"/>
<polygon fill="black" stroke="black" points="460.13,-353.98 464.96,-363.41 467.06,-353.02 460.13,-353.98"/>
<text text-anchor="middle" x="500" y="-284.8" font-family="Times-Roman" font-size="14.00">toPlutusData</text>
</g>
<!-- ScriptData&#45;&gt;AlonzoData -->
<g id="edge14" class="edge">
<title>ScriptData&#45;&gt;AlonzoData</title>
<path fill="none" stroke="black" d="M243.06,-213.59C234.4,-219.76 225.74,-225.98 217.5,-232 205.6,-240.69 192.77,-250.35 181.23,-259.14"/>
<polygon fill="black" stroke="black" points="178.9,-256.51 173.08,-265.36 183.16,-262.07 178.9,-256.51"/>
<text text-anchor="middle" x="264" y="-235.8" font-family="Times-Roman" font-size="14.00">toAlonzoData</text>
</g>
<!-- ScriptDatum -->
<g id="node9" class="node">
<title>ScriptDatum</title>
<polygon fill="none" stroke="black" points="199.5,-0.5 199.5,-46.5 449.5,-46.5 449.5,-0.5 199.5,-0.5"/>
<text text-anchor="middle" x="250" y="-31.3" font-family="Times-Roman" font-size="14.00">cardano&#45;api</text>
<polyline fill="none" stroke="black" points="199.5,-23.5 300.5,-23.5 "/>
<text text-anchor="middle" x="250" y="-8.3" font-family="Times-Roman" font-size="14.00">Cardano.Api</text>
<polyline fill="none" stroke="black" points="300.5,-0.5 300.5,-46.5 "/>
<text text-anchor="middle" x="375" y="-19.8" font-family="Times-Roman" font-size="14.00">ScriptDatum witctx</text>
</g>
<!-- ScriptData&#45;&gt;ScriptDatum -->
<g id="edge17" class="edge">
<title>ScriptData&#45;&gt;ScriptDatum</title>
<path fill="none" stroke="black" d="M324.5,-98.14C324.5,-84.01 324.5,-69.34 324.5,-56.86"/>
<polygon fill="black" stroke="black" points="328,-56.51 324.5,-46.51 321,-56.51 328,-56.51"/>
<text text-anchor="middle" x="394" y="-68.8" font-family="Times-Roman" font-size="14.00">ScriptDatumForTxIn</text>
</g>
<!-- AlonzoData&#45;&gt;ScriptData -->
<g id="edge13" class="edge">
<title>AlonzoData&#45;&gt;ScriptData</title>
<path fill="none" stroke="black" d="M96.23,-265.36C82.48,-255.96 73.41,-244.33 82.5,-232 85.85,-227.46 90.96,-223.07 97.44,-218.86"/>
<polygon fill="black" stroke="black" points="99.51,-221.7 106.36,-213.61 95.97,-215.66 99.51,-221.7"/>
<text text-anchor="middle" x="138.5" y="-235.8" font-family="Times-Roman" font-size="14.00">fromAlonzoData</text>
</g>
<!-- ScriptRedeemer -->
<g id="node8" class="node">
<title>ScriptRedeemer</title>
<polygon fill="none" stroke="black" points="576,-265.5 576,-311.5 805,-311.5 805,-265.5 576,-265.5"/>
<text text-anchor="middle" x="626.5" y="-296.3" font-family="Times-Roman" font-size="14.00">cardano&#45;api</text>
<polyline fill="none" stroke="black" points="576,-288.5 677,-288.5 "/>
<text text-anchor="middle" x="626.5" y="-273.3" font-family="Times-Roman" font-size="14.00">Cardano.Api</text>
<polyline fill="none" stroke="black" points="677,-265.5 677,-311.5 "/>
<text text-anchor="middle" x="741" y="-284.8" font-family="Times-Roman" font-size="14.00">ScriptRedeemer</text>
</g>
<!-- ScriptRedeemer&#45;&gt;ScriptData -->
<g id="edge16" class="edge">
<title>ScriptRedeemer&#45;&gt;ScriptData</title>
<path fill="none" stroke="black" d="M628.41,-265.36C590.94,-252 541.22,-234.27 492.87,-217.03"/>
<polygon fill="black" stroke="black" points="493.81,-213.65 483.22,-213.59 491.46,-220.25 493.81,-213.65"/>
<text text-anchor="middle" x="588" y="-235.8" font-family="Times-Roman" font-size="14.00">type</text>
</g>
<!-- Value&#45;&gt;a -->
<g id="edge22" class="edge">
<title>Value&#45;&gt;a</title>
<path fill="none" stroke="black" d="M1056.86,-444.06C1069.44,-466.46 1083.43,-501.38 1067.5,-527 1059.62,-539.67 1045.75,-547.95 1032.27,-553.29"/>
<polygon fill="black" stroke="black" points="1030.88,-550.07 1022.61,-556.69 1033.21,-556.67 1030.88,-550.07"/>
<text text-anchor="middle" x="1125" y="-515.8" font-family="Times-Roman" font-size="14.00">FromJSON a ⇒</text>
<text text-anchor="middle" x="1125" y="-500.8" font-family="Times-Roman" font-size="14.00">fromJSON</text>
</g>
<!-- Value&#45;&gt;Datum -->
<g id="edge18" class="edge">
<title>Value&#45;&gt;Datum</title>
<path fill="none" stroke="black" d="M1024.6,-397.72C1009.89,-379.46 988.45,-352.97 969.5,-330 966.66,-326.56 963.68,-322.97 960.7,-319.41"/>
<polygon fill="black" stroke="black" points="963.38,-317.15 954.27,-311.73 958.01,-321.64 963.38,-317.15"/>
<text text-anchor="middle" x="1016.5" y="-333.8" font-family="Times-Roman" font-size="14.00">fromJSON</text>
</g>
<!-- Value&#45;&gt;Redeemer -->
<g id="edge20" class="edge">
<title>Value&#45;&gt;Redeemer</title>
<path fill="none" stroke="black" d="M1068.29,-397.97C1090.75,-379.15 1124.49,-351.74 1155.5,-330 1161.63,-325.7 1168.22,-321.36 1174.77,-317.19"/>
<polygon fill="black" stroke="black" points="1177.02,-319.91 1183.64,-311.64 1173.31,-313.98 1177.02,-319.91"/>
<text text-anchor="middle" x="1189.5" y="-333.8" font-family="Times-Roman" font-size="14.00">fromJSON</text>
</g>
<!-- IsData&#45;&gt;BuiltinData -->
<g id="edge28" class="edge">
<title>IsData&#45;&gt;BuiltinData</title>
<path fill="none" stroke="black" d="M1852.24,-453.9C1917.84,-483.07 1990.63,-529.56 1952.5,-582 1911.84,-637.93 1872.51,-617.5 1804.5,-630 1679.77,-652.93 1329.22,-663.65 1132.97,-667.99"/>
<polygon fill="black" stroke="black" points="1132.79,-664.49 1122.87,-668.21 1132.94,-671.49 1132.79,-664.49"/>
<text text-anchor="middle" x="2008" y="-559.8" font-family="Times-Roman" font-size="14.00">toBuiltinData</text>
</g>
</g>
</svg>
